<svg xmlns="http://www.w3.org/2000/svg" viewBox="0 0 340 96" width="340" height="96">
  <defs>
    <radialGradient id="bg3" cx="50%" cy="45%" r="55%">
      <stop offset="0%" stop-color="#2A436A"></stop>
      <stop offset="100%" stop-color="#0E2444"></stop>
    </radialGradient>
  </defs>
  <g>
    <circle cx="48" cy="48" r="46" fill="url(#bg3)"></circle>
    <g stroke="rgba(246,241,230,0.55)" stroke-width="0.9" stroke-linecap="round" fill="none">
      <line x1="26" y1="28" x2="44" y2="36"></line>
      <line x1="44" y1="36" x2="62" y2="22"></line>
      <line x1="44" y1="36" x2="58" y2="50"></line>
      <line x1="58" y1="50" x2="72" y2="44"></line>
      <line x1="58" y1="50" x2="48" y2="68"></line>
      <line x1="48" y1="68" x2="32" y2="58"></line>
      <line x1="32" y1="58" x2="26" y2="28"></line>
      <line x1="48" y1="68" x2="66" y2="70"></line>
      <line x1="62" y1="22" x2="74" y2="32"></line>
      <line x1="32" y1="58" x2="22" y2="50"></line>
    </g>
    <circle cx="26" cy="28" r="3" fill="#F6F1E6"></circle>
    <circle cx="44" cy="36" r="3.5" fill="#E5A93B"></circle>
    <circle cx="62" cy="22" r="2.5" fill="#F6F1E6"></circle>
    <circle cx="58" cy="50" r="4" fill="#E5A93B"></circle>
    <circle cx="72" cy="44" r="2.5" fill="#F6F1E6"></circle>
    <circle cx="48" cy="68" r="3.5" fill="#9BE3B8"></circle>
    <circle cx="32" cy="58" r="3" fill="#F6F1E6"></circle>
    <circle cx="66" cy="70" r="2.5" fill="#E5A93B"></circle>
    <circle cx="74" cy="32" r="2" fill="#F6F1E6"></circle>
    <circle cx="22" cy="50" r="2" fill="#F6F1E6"></circle>
  </g>
  <text x="112" y="54" font-family="Cormorant Garamond, Times New Roman, serif" font-size="30" font-weight="500" fill="#F6F1E6" letter-spacing="-0.3">Nucleus</text>
  <text x="112" y="80" font-family="Manrope, system-ui, sans-serif" font-size="13" font-weight="600" letter-spacing="3" fill="#9BB0CC">TRACKER</text>
</svg>